<svg width="101" height="53" viewBox="0 0 101 53" fill="none" xmlns="http://www.w3.org/2000/svg">
<path d="M20.4373 17.3574C20.4373 19.4116 19.9807 21.2211 19.0661 22.7861C18.1516 24.3511 16.9249 25.5727 15.3846 26.4482C13.8443 27.325 12.1219 27.7634 10.2187 27.7634C8.31545 27.7634 6.59305 27.325 5.05277 26.4482C3.5125 25.5714 2.28575 24.3511 1.37121 22.7861C0.456671 21.2211 5.24521e-05 19.4116 5.24521e-05 17.3574C5.24521e-05 15.3033 0.456671 13.495 1.37121 11.9288C2.28575 10.3638 3.5125 9.13701 5.05277 8.24719C6.59305 7.35867 8.31415 6.91376 10.2187 6.91376C12.1232 6.91376 13.8443 7.35867 15.3846 8.24719C16.9249 9.13701 18.1516 10.3638 19.0661 11.9288C19.9807 13.4937 20.4373 15.3033 20.4373 17.3574ZM15.9297 17.3574C15.9297 16.0799 15.6721 14.9716 15.1595 14.0323C14.6457 13.0931 13.9575 12.3607 13.0937 11.8351C12.2299 11.3095 11.2711 11.0467 10.22 11.0467C9.16884 11.0467 8.21008 11.3095 7.34627 11.8351C6.48247 12.3607 5.79299 13.0931 5.28043 14.0323C4.76658 14.9716 4.5103 16.0799 4.5103 17.3574C4.5103 18.6349 4.76658 19.7056 5.28043 20.6448C5.79299 21.5841 6.48247 22.3165 7.34627 22.8421C8.21008 23.3676 9.16754 23.6304 10.22 23.6304C11.2724 23.6304 12.2299 23.3676 13.0937 22.8421C13.9575 22.3165 14.6457 21.5841 15.1595 20.6448C15.6721 19.7056 15.9297 18.6102 15.9297 17.3574Z" fill="#1E2A47"/>
<path d="M45.7751 6.91376C46.371 6.91376 46.89 7.14142 47.3323 7.59543C47.7733 8.04945 47.9932 8.62705 47.9932 9.32694C47.9932 9.50907 47.9802 9.67168 47.9542 9.81348C47.9281 9.95658 47.8891 10.0932 47.8371 10.222L41.8815 26.2582C41.6994 26.7773 41.3755 27.1728 40.9085 27.446C40.4414 27.7179 39.9484 27.8154 39.4293 27.7374C38.5473 27.6853 37.8851 27.1923 37.4441 26.2582L33.5908 15.1654L34.603 15.2044L30.9838 26.2582C30.5415 27.1923 29.8807 27.6853 28.9986 27.7374C28.5056 27.8154 28.0191 27.7179 27.539 27.446C27.059 27.1741 26.7273 26.7786 26.5464 26.2582L20.5909 10.222C20.4868 9.93706 20.4348 9.63786 20.4348 9.32694C20.4348 8.70381 20.6429 8.14702 21.0579 7.65267C21.4729 7.15963 22.044 6.91376 22.7699 6.91376C23.2629 6.91376 23.704 7.03084 24.0929 7.2637C24.4819 7.49786 24.7551 7.87383 24.9099 8.39289L29.6192 21.1587L28.6461 21.0806L32.1885 11.4669C32.6035 10.5069 33.3177 10.0268 34.3298 10.0268C34.9009 10.0268 35.3354 10.1504 35.6333 10.3963C35.9312 10.6435 36.1718 10.9999 36.354 11.4669L39.8963 21.0806L38.7281 21.2367L43.5155 8.39289C43.8277 7.4068 44.5796 6.91376 45.7738 6.91376H45.7751Z" fill="#1E2A47"/>
<path d="M98.9392 20.1654C98.0247 18.5991 96.7966 17.3723 95.2577 16.4838C93.7161 15.594 91.995 15.1504 90.0918 15.1504C88.1885 15.1504 86.4648 15.594 84.9259 16.4838C83.3843 17.3723 82.1575 18.5991 81.243 20.1654C80.7369 21.0331 80.3714 22.4953 80.1476 23.5113C80.1099 23.6843 79.959 23.8105 79.7808 23.8105H76.9617C76.7835 23.8105 76.6339 23.6843 76.5949 23.5113C76.3698 22.494 76.0042 21.0331 75.4969 20.1641C74.5824 18.5978 73.3556 17.371 71.8153 16.4825C70.2751 15.5927 68.5526 15.1491 66.6494 15.1491C64.7462 15.1491 63.0238 15.5927 61.4835 16.4825C59.9432 17.371 58.7152 18.5978 57.802 20.1641C57.2959 21.0318 56.929 21.9736 56.704 22.9909C56.6663 23.164 56.5154 23.2901 56.3371 23.2901H54.162C53.9552 23.2901 53.7861 23.1223 53.7861 22.9142V2.2909C53.7861 1.63914 53.5792 1.09406 53.1668 0.656958C52.7531 0.219854 52.2198 0 51.5706 0C50.9215 0 50.3738 0.219854 49.9367 0.656958C49.497 1.09406 49.2797 1.63914 49.2797 2.2909V25.5069C49.2797 26.1586 49.4918 26.7037 49.9185 27.1408C50.2996 27.535 50.764 27.751 51.3104 27.7926C51.3703 27.7965 51.4327 27.7978 51.4965 27.7978H56.3163C56.4958 27.7978 56.6467 27.9253 56.6845 28.1009C56.9069 29.1533 57.2803 30.1264 57.8033 31.0214C58.7165 32.5864 59.9445 33.8067 61.4848 34.6835C63.0251 35.559 64.7449 35.9987 66.6507 35.9987C68.5565 35.9987 70.2763 35.559 71.8166 34.6835C73.3569 33.8067 74.5837 32.5851 75.4982 31.0214C76.0199 30.1264 76.3919 28.633 76.6157 27.5805C76.6534 27.4049 76.8043 27.2787 76.9838 27.2787H79.76C79.9395 27.2787 80.0904 27.4062 80.1281 27.5818C80.3506 28.6343 80.7226 30.1277 81.2443 31.0227C82.1588 32.5877 83.3856 33.808 84.9272 34.6848C86.4648 35.5603 88.1872 36 90.0931 36C91.9989 36 93.7161 35.5603 95.259 34.6848C96.7966 33.808 98.026 32.5864 98.9405 31.0227C99.8538 29.4564 100.31 27.6469 100.31 25.594C100.31 23.5412 99.8538 21.7304 98.9405 20.1654H98.9392ZM71.5916 28.8788C71.0764 29.8181 70.3895 30.5518 69.5257 31.0787C68.6619 31.6029 67.7032 31.867 66.652 31.867C65.6009 31.867 64.6421 31.6016 63.7783 31.0787C62.9145 30.5531 62.225 29.8181 61.7125 28.8788C61.1973 27.9422 60.9423 26.8442 60.9423 25.594C60.9423 24.3439 61.1973 23.2082 61.7125 22.2689C62.225 21.3297 62.9145 20.5973 63.7783 20.0717C64.6421 19.5461 65.6009 19.2833 66.652 19.2833C67.7032 19.2833 68.6619 19.5461 69.5257 20.0717C70.3895 20.5973 71.0777 21.3297 71.5916 22.2689C72.1041 23.2082 72.3617 24.3166 72.3617 25.594C72.3617 26.8715 72.1041 27.9422 71.5916 28.8788ZM95.0313 28.8788C94.5187 29.8181 93.8293 30.5518 92.9655 31.0787C92.1017 31.6029 91.1455 31.867 90.0931 31.867C89.0406 31.867 88.0819 31.6016 87.2168 31.0787C86.3543 30.5531 85.6648 29.8181 85.1509 28.8788C84.6384 27.9422 84.3821 26.8442 84.3821 25.594C84.3821 24.3439 84.6371 23.2082 85.1509 22.2689C85.6661 21.3297 86.3556 20.5973 87.2168 20.0717C88.0806 19.5461 89.0393 19.2833 90.0931 19.2833C91.1468 19.2833 92.1004 19.5461 92.9655 20.0717C93.8293 20.5973 94.5187 21.3297 95.0313 22.2689C95.5465 23.2082 95.8014 24.3166 95.8014 25.594C95.8014 26.8715 95.5465 27.9422 95.0313 28.8788Z" fill="#1E2A47"/>
<path d="M52.4307 27.7569C52.4568 27.7608 52.4815 27.7621 52.5075 27.7621H52.6168C52.553 27.7621 52.4906 27.7608 52.4307 27.7569Z" fill="#1E2A47"/>
<path d="M69.7457 24.8468C70.9966 24.8468 72.0106 23.8328 72.0106 22.5819C72.0106 21.331 70.9966 20.317 69.7457 20.317C68.4948 20.317 67.4808 21.331 67.4808 22.5819C67.4808 23.8328 68.4948 24.8468 69.7457 24.8468Z" fill="#1E2A47"/>
<path d="M93.1865 24.8468C94.4374 24.8468 95.4515 23.8328 95.4515 22.5819C95.4515 21.331 94.4374 20.317 93.1865 20.317C91.9357 20.317 90.9216 21.331 90.9216 22.5819C90.9216 23.8328 91.9357 24.8468 93.1865 24.8468Z" fill="#1E2A47"/>
<path d="M1.716 48.096C1.468 48.096 1.272 48.028 1.128 47.892C0.992 47.748 0.924 47.544 0.924 47.28V40.356C0.924 40.092 0.992 39.892 1.128 39.756C1.272 39.612 1.476 39.54 1.74 39.54H5.928C6.136 39.54 6.292 39.592 6.396 39.696C6.5 39.8 6.552 39.948 6.552 40.14C6.552 40.34 6.5 40.496 6.396 40.608C6.292 40.712 6.136 40.764 5.928 40.764H2.46V43.152H5.676C5.876 43.152 6.028 43.204 6.132 43.308C6.244 43.412 6.3 43.56 6.3 43.752C6.3 43.952 6.244 44.108 6.132 44.22C6.028 44.324 5.876 44.376 5.676 44.376H2.46V47.28C2.46 47.824 2.212 48.096 1.716 48.096ZM8.86275 48.084C8.62275 48.084 8.43875 48.012 8.31075 47.868C8.18275 47.724 8.11875 47.524 8.11875 47.268V42.864C8.11875 42.6 8.18275 42.4 8.31075 42.264C8.43875 42.12 8.62275 42.048 8.86275 42.048C9.10275 42.048 9.28675 42.12 9.41475 42.264C9.55075 42.4 9.61875 42.6 9.61875 42.864V47.268C9.61875 47.524 9.55475 47.724 9.42675 47.868C9.29875 48.012 9.11075 48.084 8.86275 48.084ZM8.86275 40.932C8.58275 40.932 8.36275 40.864 8.20275 40.728C8.05075 40.584 7.97475 40.388 7.97475 40.14C7.97475 39.884 8.05075 39.688 8.20275 39.552C8.36275 39.416 8.58275 39.348 8.86275 39.348C9.15075 39.348 9.37075 39.416 9.52275 39.552C9.67475 39.688 9.75075 39.884 9.75075 40.14C9.75075 40.388 9.67475 40.584 9.52275 40.728C9.37075 40.864 9.15075 40.932 8.86275 40.932ZM12.0413 48.096C11.8013 48.096 11.6173 48.032 11.4893 47.904C11.3613 47.768 11.2973 47.576 11.2973 47.328V42.792C11.2973 42.544 11.3613 42.356 11.4893 42.228C11.6173 42.1 11.7973 42.036 12.0293 42.036C12.2613 42.036 12.4413 42.1 12.5693 42.228C12.6973 42.356 12.7613 42.544 12.7613 42.792V43.608L12.6293 43.308C12.8053 42.884 13.0773 42.564 13.4453 42.348C13.8213 42.124 14.2453 42.012 14.7173 42.012C15.1893 42.012 15.5773 42.1 15.8813 42.276C16.1853 42.452 16.4133 42.72 16.5653 43.08C16.7173 43.432 16.7933 43.88 16.7933 44.424V47.328C16.7933 47.576 16.7293 47.768 16.6013 47.904C16.4733 48.032 16.2893 48.096 16.0493 48.096C15.8093 48.096 15.6213 48.032 15.4853 47.904C15.3573 47.768 15.2933 47.576 15.2933 47.328V44.496C15.2933 44.04 15.2053 43.708 15.0293 43.5C14.8613 43.292 14.5973 43.188 14.2373 43.188C13.7973 43.188 13.4453 43.328 13.1813 43.608C12.9253 43.88 12.7973 44.244 12.7973 44.7V47.328C12.7973 47.84 12.5453 48.096 12.0413 48.096ZM20.6929 48.12C20.1809 48.12 19.7289 47.996 19.3369 47.748C18.9529 47.5 18.6529 47.148 18.4369 46.692C18.2209 46.228 18.1129 45.684 18.1129 45.06C18.1129 44.428 18.2209 43.888 18.4369 43.44C18.6529 42.984 18.9529 42.632 19.3369 42.384C19.7289 42.136 20.1809 42.012 20.6929 42.012C21.1809 42.012 21.6049 42.132 21.9649 42.372C22.3329 42.612 22.5809 42.928 22.7089 43.32H22.5769V40.2C22.5769 39.952 22.6409 39.764 22.7689 39.636C22.8969 39.508 23.0809 39.444 23.3209 39.444C23.5609 39.444 23.7449 39.508 23.8729 39.636C24.0089 39.764 24.0769 39.952 24.0769 40.2V47.328C24.0769 47.576 24.0129 47.768 23.8849 47.904C23.7569 48.032 23.5729 48.096 23.3329 48.096C23.0929 48.096 22.9089 48.032 22.7809 47.904C22.6529 47.768 22.5889 47.576 22.5889 47.328V46.392L22.7209 46.752C22.6009 47.168 22.3569 47.5 21.9889 47.748C21.6209 47.996 21.1889 48.12 20.6929 48.12ZM21.1129 46.98C21.4089 46.98 21.6689 46.908 21.8929 46.764C22.1169 46.62 22.2889 46.408 22.4089 46.128C22.5369 45.84 22.6009 45.484 22.6009 45.06C22.6009 44.42 22.4649 43.944 22.1929 43.632C21.9209 43.312 21.5609 43.152 21.1129 43.152C20.8169 43.152 20.5569 43.224 20.3329 43.368C20.1089 43.504 19.9329 43.716 19.8049 44.004C19.6849 44.284 19.6249 44.636 19.6249 45.06C19.6249 45.692 19.7609 46.172 20.0329 46.5C20.3049 46.82 20.6649 46.98 21.1129 46.98ZM26.4722 48.06C26.2002 48.06 25.9802 47.976 25.8122 47.808C25.6522 47.64 25.5722 47.424 25.5722 47.16C25.5722 46.904 25.6522 46.696 25.8122 46.536C25.9802 46.368 26.2002 46.284 26.4722 46.284C26.7522 46.284 26.9682 46.368 27.1202 46.536C27.2802 46.696 27.3602 46.904 27.3602 47.16C27.3602 47.424 27.2802 47.64 27.1202 47.808C26.9682 47.976 26.7522 48.06 26.4722 48.06ZM33.0906 48.096C32.8666 48.096 32.6946 48.032 32.5746 47.904C32.4546 47.776 32.3946 47.6 32.3946 47.376V40.164C32.3946 39.932 32.4586 39.756 32.5866 39.636C32.7146 39.508 32.8906 39.444 33.1146 39.444C33.3146 39.444 33.4706 39.484 33.5826 39.564C33.7026 39.636 33.8106 39.764 33.9066 39.948L36.8706 45.432H36.4866L39.4506 39.948C39.5466 39.764 39.6506 39.636 39.7626 39.564C39.8746 39.484 40.0306 39.444 40.2306 39.444C40.4546 39.444 40.6266 39.508 40.7466 39.636C40.8666 39.756 40.9266 39.932 40.9266 40.164V47.376C40.9266 47.6 40.8666 47.776 40.7466 47.904C40.6346 48.032 40.4626 48.096 40.2306 48.096C40.0066 48.096 39.8346 48.032 39.7146 47.904C39.5946 47.776 39.5346 47.6 39.5346 47.376V41.82H39.7986L37.2786 46.416C37.1986 46.552 37.1146 46.652 37.0266 46.716C36.9386 46.78 36.8186 46.812 36.6666 46.812C36.5146 46.812 36.3906 46.78 36.2946 46.716C36.1986 46.644 36.1146 46.544 36.0426 46.416L33.4986 41.808H33.7866V47.376C33.7866 47.6 33.7266 47.776 33.6066 47.904C33.4946 48.032 33.3226 48.096 33.0906 48.096ZM44.6965 48.12C44.2725 48.12 43.8925 48.04 43.5565 47.88C43.2285 47.712 42.9685 47.488 42.7765 47.208C42.5925 46.928 42.5005 46.612 42.5005 46.26C42.5005 45.828 42.6125 45.488 42.8365 45.24C43.0605 44.984 43.4245 44.8 43.9285 44.688C44.4325 44.576 45.1085 44.52 45.9565 44.52H46.5565V45.384H45.9685C45.4725 45.384 45.0765 45.408 44.7805 45.456C44.4845 45.504 44.2725 45.588 44.1445 45.708C44.0245 45.82 43.9645 45.98 43.9645 46.188C43.9645 46.452 44.0565 46.668 44.2405 46.836C44.4245 47.004 44.6805 47.088 45.0085 47.088C45.2725 47.088 45.5045 47.028 45.7045 46.908C45.9125 46.78 46.0765 46.608 46.1965 46.392C46.3165 46.176 46.3765 45.928 46.3765 45.648V44.268C46.3765 43.868 46.2885 43.58 46.1125 43.404C45.9365 43.228 45.6405 43.14 45.2245 43.14C44.9925 43.14 44.7405 43.168 44.4685 43.224C44.2045 43.28 43.9245 43.376 43.6285 43.512C43.4765 43.584 43.3405 43.604 43.2205 43.572C43.1085 43.54 43.0205 43.476 42.9565 43.38C42.8925 43.276 42.8605 43.164 42.8605 43.044C42.8605 42.924 42.8925 42.808 42.9565 42.696C43.0205 42.576 43.1285 42.488 43.2805 42.432C43.6485 42.28 44.0005 42.172 44.3365 42.108C44.6805 42.044 44.9925 42.012 45.2725 42.012C45.8485 42.012 46.3205 42.1 46.6885 42.276C47.0645 42.452 47.3445 42.72 47.5285 43.08C47.7125 43.432 47.8045 43.888 47.8045 44.448V47.328C47.8045 47.576 47.7445 47.768 47.6245 47.904C47.5045 48.032 47.3325 48.096 47.1085 48.096C46.8845 48.096 46.7085 48.032 46.5805 47.904C46.4605 47.768 46.4005 47.576 46.4005 47.328V46.752H46.4965C46.4405 47.032 46.3285 47.276 46.1605 47.484C46.0005 47.684 45.7965 47.84 45.5485 47.952C45.3005 48.064 45.0165 48.12 44.6965 48.12ZM52.135 48.12C51.615 48.12 51.179 48.032 50.827 47.856C50.483 47.68 50.227 47.424 50.059 47.088C49.891 46.744 49.807 46.32 49.807 45.816V43.26H49.183C48.991 43.26 48.843 43.212 48.739 43.116C48.635 43.012 48.583 42.872 48.583 42.696C48.583 42.512 48.635 42.372 48.739 42.276C48.843 42.18 48.991 42.132 49.183 42.132H49.807V41.04C49.807 40.792 49.871 40.604 49.999 40.476C50.135 40.348 50.323 40.284 50.563 40.284C50.803 40.284 50.987 40.348 51.115 40.476C51.243 40.604 51.307 40.792 51.307 41.04V42.132H52.579C52.771 42.132 52.919 42.18 53.023 42.276C53.127 42.372 53.179 42.512 53.179 42.696C53.179 42.872 53.127 43.012 53.023 43.116C52.919 43.212 52.771 43.26 52.579 43.26H51.307V45.732C51.307 46.116 51.391 46.404 51.559 46.596C51.727 46.788 51.999 46.884 52.375 46.884C52.511 46.884 52.631 46.872 52.735 46.848C52.839 46.824 52.931 46.808 53.011 46.8C53.107 46.792 53.187 46.824 53.251 46.896C53.315 46.96 53.347 47.096 53.347 47.304C53.347 47.464 53.319 47.608 53.263 47.736C53.215 47.856 53.123 47.94 52.987 47.988C52.883 48.02 52.747 48.048 52.579 48.072C52.411 48.104 52.263 48.12 52.135 48.12ZM56.8259 48.12C56.2099 48.12 55.6739 47.996 55.2179 47.748C54.7619 47.492 54.4099 47.132 54.1619 46.668C53.9139 46.204 53.7899 45.66 53.7899 45.036C53.7899 44.564 53.8579 44.144 53.9939 43.776C54.1379 43.4 54.3419 43.084 54.6059 42.828C54.8699 42.564 55.1899 42.364 55.5659 42.228C55.9419 42.084 56.3619 42.012 56.8259 42.012C57.0899 42.012 57.3739 42.048 57.6779 42.12C57.9899 42.192 58.2819 42.312 58.5539 42.48C58.6819 42.56 58.7659 42.656 58.8059 42.768C58.8459 42.88 58.8539 42.996 58.8299 43.116C58.8059 43.228 58.7539 43.328 58.6739 43.416C58.6019 43.496 58.5099 43.548 58.3979 43.572C58.2859 43.588 58.1619 43.56 58.0259 43.488C57.8499 43.384 57.6699 43.308 57.4859 43.26C57.3019 43.204 57.1259 43.176 56.9579 43.176C56.6939 43.176 56.4619 43.22 56.2619 43.308C56.0619 43.388 55.8899 43.508 55.7459 43.668C55.6099 43.82 55.5059 44.012 55.4339 44.244C55.3619 44.476 55.3259 44.744 55.3259 45.048C55.3259 45.64 55.4659 46.108 55.7459 46.452C56.0339 46.788 56.4379 46.956 56.9579 46.956C57.1259 46.956 57.2979 46.932 57.4739 46.884C57.6579 46.836 57.8419 46.76 58.0259 46.656C58.1619 46.584 58.2819 46.56 58.3859 46.584C58.4979 46.608 58.5899 46.664 58.6619 46.752C58.7339 46.832 58.7779 46.932 58.7939 47.052C58.8099 47.164 58.7939 47.276 58.7459 47.388C58.7059 47.5 58.6259 47.592 58.5059 47.664C58.2419 47.824 57.9619 47.94 57.6659 48.012C57.3699 48.084 57.0899 48.12 56.8259 48.12ZM60.6381 48.096C60.3981 48.096 60.2141 48.032 60.0861 47.904C59.9581 47.768 59.8941 47.576 59.8941 47.328V40.2C59.8941 39.952 59.9581 39.764 60.0861 39.636C60.2141 39.508 60.3981 39.444 60.6381 39.444C60.8781 39.444 61.0621 39.508 61.1901 39.636C61.3261 39.764 61.3941 39.952 61.3941 40.2V43.308H61.2261C61.4021 42.884 61.6741 42.564 62.0421 42.348C62.4181 42.124 62.8421 42.012 63.3141 42.012C63.7861 42.012 64.1741 42.1 64.4781 42.276C64.7821 42.452 65.0101 42.72 65.1621 43.08C65.3141 43.432 65.3901 43.88 65.3901 44.424V47.328C65.3901 47.576 65.3261 47.768 65.1981 47.904C65.0701 48.032 64.8861 48.096 64.6461 48.096C64.4061 48.096 64.2181 48.032 64.0821 47.904C63.9541 47.768 63.8901 47.576 63.8901 47.328V44.496C63.8901 44.04 63.8021 43.708 63.6261 43.5C63.4581 43.292 63.1941 43.188 62.8341 43.188C62.3941 43.188 62.0421 43.328 61.7781 43.608C61.5221 43.88 61.3941 44.244 61.3941 44.7V47.328C61.3941 47.84 61.1421 48.096 60.6381 48.096ZM67.7536 48.06C67.4816 48.06 67.2616 47.976 67.0936 47.808C66.9336 47.64 66.8536 47.424 66.8536 47.16C66.8536 46.904 66.9336 46.696 67.0936 46.536C67.2616 46.368 67.4816 46.284 67.7536 46.284C68.0336 46.284 68.2496 46.368 68.4016 46.536C68.5616 46.696 68.6416 46.904 68.6416 47.16C68.6416 47.424 68.5616 47.64 68.4016 47.808C68.2496 47.976 68.0336 48.06 67.7536 48.06ZM77.444 48.12C76.628 48.12 75.912 47.94 75.296 47.58C74.688 47.22 74.216 46.716 73.88 46.068C73.544 45.412 73.376 44.644 73.376 43.764C73.376 43.1 73.472 42.504 73.664 41.976C73.856 41.44 74.128 40.984 74.48 40.608C74.84 40.224 75.268 39.932 75.764 39.732C76.268 39.524 76.828 39.42 77.444 39.42C78.268 39.42 78.984 39.6 79.592 39.96C80.2 40.312 80.672 40.812 81.008 41.46C81.344 42.108 81.512 42.872 81.512 43.752C81.512 44.416 81.416 45.016 81.224 45.552C81.032 46.088 80.756 46.548 80.396 46.932C80.044 47.316 79.616 47.612 79.112 47.82C78.616 48.02 78.06 48.12 77.444 48.12ZM77.444 46.8C77.964 46.8 78.404 46.68 78.764 46.44C79.132 46.2 79.412 45.852 79.604 45.396C79.804 44.94 79.904 44.396 79.904 43.764C79.904 42.804 79.688 42.06 79.256 41.532C78.832 41.004 78.228 40.74 77.444 40.74C76.932 40.74 76.492 40.86 76.124 41.1C75.756 41.332 75.472 41.676 75.272 42.132C75.08 42.58 74.984 43.124 74.984 43.764C74.984 44.716 75.2 45.46 75.632 45.996C76.064 46.532 76.668 46.8 77.444 46.8ZM85.3178 48.096C85.1178 48.096 84.9458 48.048 84.8018 47.952C84.6578 47.848 84.5418 47.688 84.4538 47.472L82.7138 43.032C82.6418 42.84 82.6178 42.672 82.6418 42.528C82.6738 42.376 82.7498 42.256 82.8698 42.168C82.9898 42.08 83.1498 42.036 83.3498 42.036C83.5258 42.036 83.6698 42.08 83.7818 42.168C83.8938 42.248 83.9898 42.404 84.0698 42.636L85.5218 46.632H85.2458L86.7458 42.54C86.8098 42.364 86.8938 42.236 86.9978 42.156C87.1098 42.076 87.2538 42.036 87.4298 42.036C87.6058 42.036 87.7498 42.08 87.8618 42.168C87.9738 42.248 88.0578 42.372 88.1138 42.54L89.5898 46.632H89.3378L90.8018 42.6C90.8818 42.384 90.9818 42.236 91.1018 42.156C91.2298 42.076 91.3698 42.036 91.5218 42.036C91.7138 42.036 91.8618 42.084 91.9658 42.18C92.0698 42.276 92.1298 42.4 92.1458 42.552C92.1618 42.696 92.1338 42.856 92.0618 43.032L90.3338 47.472C90.2538 47.68 90.1378 47.836 89.9858 47.94C89.8418 48.044 89.6698 48.096 89.4698 48.096C89.2698 48.096 89.0938 48.044 88.9418 47.94C88.7978 47.836 88.6858 47.68 88.6058 47.472L87.0338 43.308H87.7178L86.1818 47.46C86.1018 47.676 85.9898 47.836 85.8458 47.94C85.7018 48.044 85.5258 48.096 85.3178 48.096ZM94.1443 48.096C93.9043 48.096 93.7203 48.032 93.5923 47.904C93.4643 47.768 93.4003 47.576 93.4003 47.328V42.792C93.4003 42.544 93.4643 42.356 93.5923 42.228C93.7203 42.1 93.9003 42.036 94.1323 42.036C94.3643 42.036 94.5443 42.1 94.6723 42.228C94.8003 42.356 94.8643 42.544 94.8643 42.792V43.608L94.7323 43.308C94.9083 42.884 95.1803 42.564 95.5483 42.348C95.9243 42.124 96.3483 42.012 96.8203 42.012C97.2923 42.012 97.6803 42.1 97.9843 42.276C98.2883 42.452 98.5163 42.72 98.6683 43.08C98.8203 43.432 98.8963 43.88 98.8963 44.424V47.328C98.8963 47.576 98.8323 47.768 98.7043 47.904C98.5763 48.032 98.3923 48.096 98.1523 48.096C97.9123 48.096 97.7243 48.032 97.5883 47.904C97.4603 47.768 97.3963 47.576 97.3963 47.328V44.496C97.3963 44.04 97.3083 43.708 97.1323 43.5C96.9643 43.292 96.7003 43.188 96.3403 43.188C95.9003 43.188 95.5483 43.328 95.2843 43.608C95.0283 43.88 94.9003 44.244 94.9003 44.7V47.328C94.9003 47.84 94.6483 48.096 94.1443 48.096Z" fill="#1E2A47"/>
</svg>
